<?xml version="1.0" standalone="no"?>
<!DOCTYPE svg PUBLIC "-//W3C//DTD SVG 20010904//EN"
 "http://www.w3.org/TR/2001/REC-SVG-20010904/DTD/svg10.dtd">
<svg version="1.0" xmlns="http://www.w3.org/2000/svg"
 width="512.000000pt" height="512.000000pt" viewBox="0 0 512.000000 512.000000"
 preserveAspectRatio="xMidYMid meet">

<g transform="translate(0.000000,512.000000) scale(0.100000,-0.100000)"
fill="#000000" stroke="none">
<path d="M2438 5110 c-295 -50 -537 -287 -592 -580 l-12 -65 -56 -6 c-33 -4
-68 -15 -86 -27 -51 -37 -57 -67 -57 -277 0 -167 2 -194 18 -218 28 -42 75
-67 130 -67 l47 0 0 -1310 0 -1310 -47 0 c-55 0 -102 -25 -130 -67 -16 -24
-18 -51 -18 -218 0 -210 6 -240 57 -277 18 -12 53 -23 86 -27 l56 -6 12 -65
c50 -266 243 -477 514 -561 108 -34 292 -34 400 0 271 84 464 295 514 561 l12
65 56 6 c33 4 68 15 86 27 51 37 57 67 57 277 0 167 -2 194 -18 218 -28 42
-75 67 -129 67 l-48 0 0 1310 0 1310 48 0 c54 0 101 25 129 67 16 24 18 51 18
218 0 210 -6 240 -57 277 -18 12 -53 23 -86 27 l-56 6 -12 65 c-23 122 -78
236 -154 323 -34 38 -48 47 -75 47 -18 0 -44 -9 -59 -21 -42 -33 -36 -74 28
-168 32 -47 63 -108 75 -147 37 -117 101 -104 -530 -104 l-551 0 7 43 c32 188
197 365 394 422 25 8 77 17 115 21 84 8 116 33 116 89 0 56 -35 85 -102 84
-29 -1 -74 -5 -100 -9z m872 -945 l0 -125 -750 0 -750 0 0 125 0 125 750 0
750 0 0 -125z m-192 -512 l-3 -218 -545 -207 c-300 -114 -551 -207 -557 -207
-10 -1 -13 44 -13 192 l0 192 250 95 c146 55 258 103 270 115 45 48 9 135 -55
135 -27 0 -257 -80 -447 -155 -17 -7 -18 4 -18 134 l0 141 560 0 560 0 -2
-217z m2 -597 l0 -193 -492 -186 c-271 -103 -523 -198 -561 -212 l-67 -25 2
197 3 196 550 208 c303 115 553 208 558 209 4 0 7 -87 7 -194z m-7 -767 c-8
-7 -1097 -419 -1107 -419 -3 0 -6 87 -6 194 l0 193 558 211 557 210 3 -191 c1
-105 -1 -194 -5 -198z m7 -382 l0 -192 -276 -104 c-281 -106 -314 -125 -314
-173 0 -27 26 -74 45 -82 35 -13 71 -3 301 84 131 50 239 90 241 90 2 0 3 -63
3 -140 l0 -140 -560 0 -560 0 2 217 3 218 545 207 c300 114 551 207 558 207 9
1 12 -44 12 -192z m190 -952 l0 -125 -750 0 -750 0 0 125 0 125 750 0 750 0 0
-125z m-205 -337 c-32 -191 -193 -363 -399 -426 -67 -20 -225 -20 -292 0 -206
63 -367 235 -399 426 l-7 42 552 0 552 0 -7 -42z"/>
</g>
</svg>
