<?xml version="1.0" standalone="no"?>
<!DOCTYPE svg PUBLIC "-//W3C//DTD SVG 20010904//EN"
 "http://www.w3.org/TR/2001/REC-SVG-20010904/DTD/svg10.dtd">
<svg version="1.0" xmlns="http://www.w3.org/2000/svg"
 width="512.000000pt" height="512.000000pt" viewBox="0 0 512.000000 512.000000"
 preserveAspectRatio="xMidYMid meet">

<g transform="translate(0.000000,512.000000) scale(0.100000,-0.100000)"
fill="#000000" stroke="none">
<path d="M1644 5100 c-38 -12 -78 -35 -106 -59 l-45 -40 -53 16 c-36 10 -80
14 -139 11 -159 -7 -287 -92 -359 -236 -34 -69 -37 -83 -38 -169 l-2 -94 -57
-59 c-31 -33 -68 -85 -83 -117 -24 -52 -27 -69 -27 -173 0 -111 1 -118 33
-183 58 -117 181 -215 294 -233 21 -4 42 -12 47 -18 7 -9 533 -1002 599 -1132
l21 -41 -41 -54 c-95 -126 -142 -268 -142 -434 0 -139 14 -188 104 -370 81
-162 100 -240 100 -397 0 -151 -19 -221 -99 -383 -39 -77 -78 -169 -87 -205
-24 -87 -24 -262 -1 -350 36 -135 156 -328 228 -366 24 -12 139 -14 736 -14
l708 0 60 63 c74 78 127 167 162 272 24 71 27 95 27 220 1 128 -2 147 -27 220
-16 44 -48 114 -72 155 -76 130 -89 182 -93 366 -5 202 4 240 97 429 78 156
101 240 101 362 -1 149 -42 281 -127 406 l-55 81 25 51 c45 92 448 850 455
857 18 18 -13 -191 -63 -422 -27 -123 3 -228 87 -312 72 -73 125 -93 243 -93
86 0 107 4 150 25 103 50 181 161 192 272 6 59 -10 132 -53 248 -25 68 -28 90
-32 242 -6 245 23 353 146 541 60 92 88 161 103 257 33 215 -89 452 -288 558
-81 43 -161 62 -258 62 l-81 0 -17 36 c-23 48 -102 130 -155 161 -132 78 -280
81 -414 11 l-57 -30 -158 26 c-262 43 -365 51 -643 51 -195 0 -305 -5 -415
-19 -150 -18 -150 -18 -212 3 -76 26 -139 26 -219 1z m174 -166 c70 -31 97
-32 248 -11 119 16 206 20 434 21 300 1 379 -6 629 -51 163 -29 210 -27 267
10 139 91 297 45 388 -115 43 -74 80 -91 200 -93 118 -1 181 -20 253 -75 101
-76 155 -184 155 -310 0 -93 -20 -148 -90 -251 -67 -99 -108 -190 -139 -309
-21 -83 -24 -117 -24 -267 1 -188 15 -284 57 -387 31 -76 32 -155 3 -202 -56
-92 -188 -107 -265 -30 -48 48 -58 98 -39 188 63 289 79 433 73 658 -4 173 -9
185 -98 235 -29 17 -83 58 -119 91 -80 75 -97 84 -155 84 -63 0 -87 -12 -157
-76 -33 -31 -86 -68 -118 -83 -49 -23 -69 -26 -156 -26 -91 0 -106 3 -172 33
-39 17 -88 32 -108 32 -55 0 -110 -33 -141 -85 -57 -98 -154 -155 -264 -155
-88 0 -144 24 -219 95 -103 97 -156 105 -274 40 -146 -79 -309 -66 -432 36
-27 22 -61 47 -77 55 -36 19 -116 18 -153 -2 -92 -51 -112 -57 -170 -57 -148
-1 -255 106 -255 253 0 84 23 134 90 196 72 68 80 87 80 196 0 76 4 102 24
143 25 55 81 110 132 131 45 19 140 18 198 -2 70 -24 125 -13 183 38 80 69
138 83 211 52z m1820 -1035 c31 -28 71 -58 89 -67 18 -9 33 -18 33 -21 0 -3
-137 -265 -303 -581 l-303 -575 -97 -3 c-65 -2 -97 1 -97 8 0 13 316 1065 330
1098 5 12 16 22 24 22 32 0 174 82 216 124 24 26 46 46 48 46 2 0 29 -23 60
-51z m-2195 -105 c59 -50 169 -100 256 -116 l73 -14 148 -484 c81 -267 150
-495 154 -507 7 -23 6 -23 -92 -23 l-99 0 -291 553 c-160 303 -292 557 -294
564 -3 10 74 60 95 62 5 1 28 -15 50 -35z m1510 1 c31 -14 78 -28 106 -32 28
-3 51 -9 51 -12 1 -3 -75 -252 -167 -553 l-168 -548 -88 0 -87 0 2 476 3 476
40 16 c67 26 148 85 195 145 25 31 48 57 51 57 4 0 32 -11 62 -25z m-796 -86
c66 -59 132 -95 211 -113 l57 -13 3 -466 2 -467 -84 0 -84 0 -21 63 c-49 150
-291 957 -291 970 0 7 17 19 38 25 20 7 51 20 67 31 17 11 34 20 39 20 4 1 33
-22 63 -50z m1042 -1274 c71 -82 121 -223 121 -345 0 -100 -24 -178 -95 -317
-92 -178 -107 -245 -107 -453 0 -209 15 -272 112 -465 39 -77 70 -148 70 -157
0 -17 -32 -18 -535 -18 l-536 0 -24 -25 c-25 -24 -32 -65 -19 -100 17 -44 33
-45 599 -45 294 0 535 -3 535 -7 0 -5 -7 -36 -15 -71 -16 -69 -57 -155 -104
-219 l-31 -43 -648 0 -648 0 -26 27 c-86 92 -133 220 -132 363 1 112 23 185
90 302 89 155 119 296 111 513 -7 174 -26 245 -112 414 -35 69 -67 136 -70
149 l-6 22 528 0 c402 0 534 3 553 13 54 27 63 94 20 137 -19 19 -36 20 -565
20 l-545 0 0 28 c0 67 46 181 107 265 l35 47 653 0 653 0 31 -35z"/>
<path d="M548 3657 c-91 -26 -174 -98 -217 -187 -22 -47 -26 -69 -26 -145 0
-84 2 -95 34 -153 61 -111 154 -172 276 -180 143 -9 255 52 324 178 34 61 36
70 36 155 0 76 -4 99 -26 145 -70 149 -246 230 -401 187z m144 -167 c46 -13
105 -77 114 -124 21 -116 -61 -211 -177 -204 -152 10 -214 186 -102 291 46 43
99 55 165 37z"/>
<path d="M910 2891 c-197 -60 -245 -325 -82 -448 141 -106 347 -39 396 128 20
66 20 82 0 148 -38 128 -187 210 -314 172z m126 -185 c58 -49 20 -146 -57
-146 -70 0 -106 94 -54 145 31 32 75 32 111 1z"/>
<path d="M4525 2639 c-57 -9 -87 -23 -129 -60 -59 -52 -81 -102 -81 -189 0
-88 22 -137 81 -190 52 -46 99 -63 169 -63 259 0 350 337 128 474 -39 24 -114
37 -168 28z m100 -194 c53 -52 14 -140 -61 -138 -110 3 -109 163 1 163 25 0
44 -8 60 -25z"/>
</g>
</svg>
