<?xml version="1.0" standalone="no"?>
<!DOCTYPE svg PUBLIC "-//W3C//DTD SVG 20010904//EN"
 "http://www.w3.org/TR/2001/REC-SVG-20010904/DTD/svg10.dtd">
<svg version="1.0" xmlns="http://www.w3.org/2000/svg"
 width="512.000000pt" height="512.000000pt" viewBox="0 0 512.000000 512.000000"
 preserveAspectRatio="xMidYMid meet">

<g transform="translate(0.000000,512.000000) scale(0.100000,-0.100000)"
fill="#000000" stroke="none">
<path d="M3680 4933 c-8 -3 -150 -139 -315 -303 l-300 -298 -190 -52 -190 -51
-373 -372 c-347 -345 -434 -440 -1193 -1297 -880 -993 -873 -985 -915 -1140
-21 -79 -24 -232 -5 -310 21 -84 75 -195 130 -263 68 -86 495 -507 554 -546
62 -42 157 -85 227 -102 78 -19 231 -16 310 5 144 39 186 71 635 467 540 478
605 535 1006 888 244 216 446 406 751 710 l417 416 52 190 51 190 298 300
c164 165 301 310 305 322 10 35 -15 70 -128 181 -143 140 -133 141 -304 -30
l-133 -132 -45 44 -45 44 130 131 c72 73 131 140 131 151 3 53 -20 84 -65 84
-26 0 -51 -20 -163 -132 l-133 -133 -47 48 -48 47 133 133 c112 112 132 137
132 163 0 38 -27 64 -66 64 -24 0 -52 -23 -161 -132 l-133 -133 -47 48 -48 47
131 132 c72 73 134 141 138 151 9 27 -19 74 -49 81 -38 10 -59 -5 -195 -140
l-126 -124 -44 45 -44 45 132 133 c171 171 170 161 30 304 -119 122 -148 140
-188 126z m-8 -396 c-117 -119 -132 -137 -132 -168 0 -31 30 -64 398 -431 367
-368 400 -398 431 -398 31 0 49 15 168 132 l133 132 50 -49 50 -50 -250 -250
-250 -250 -532 533 -533 532 250 250 250 250 50 -50 49 -50 -132 -133z m-28
-896 l550 -550 -43 -163 -44 -163 -366 -367 -366 -368 -320 0 -320 0 -352 352
-353 353 0 320 0 320 365 365 364 364 153 42 c84 24 160 43 168 43 8 1 262
-246 564 -548z m-1746 -971 c6 -12 750 -753 767 -763 13 -8 107 -14 285 -17
l266 -5 -814 -720 c-447 -396 -838 -736 -867 -757 -85 -57 -172 -82 -285 -81
-103 1 -173 20 -259 70 -60 34 -531 501 -581 575 -113 169 -114 398 -2 563 21
29 361 420 757 867 l720 814 5 -271 c3 -148 7 -272 8 -275z"/>
<path d="M2527 3492 c-132 -133 -177 -184 -177 -203 0 -35 904 -939 939 -939
19 0 70 45 203 177 153 152 178 182 178 208 0 27 -54 84 -453 483 -396 396
-456 452 -483 452 -25 0 -56 -26 -207 -178z m868 -862 l-105 -105 -382 382
-383 383 105 105 105 105 382 -382 383 -383 -105 -105z"/>
<path d="M1341 2273 c-69 -76 -81 -105 -60 -142 11 -20 24 -27 53 -29 35 -3
42 1 93 55 58 62 84 107 75 132 -11 32 -36 51 -68 51 -27 0 -42 -10 -93 -67z"/>
<path d="M1118 2018 c-36 -30 -407 -458 -413 -478 -11 -34 24 -74 67 -78 35
-3 40 2 224 210 227 256 234 264 234 294 0 50 -72 83 -112 52z"/>
</g>
</svg>
