<?xml version="1.0" standalone="no"?>
<!DOCTYPE svg PUBLIC "-//W3C//DTD SVG 20010904//EN"
 "http://www.w3.org/TR/2001/REC-SVG-20010904/DTD/svg10.dtd">
<svg version="1.0" xmlns="http://www.w3.org/2000/svg"
 width="512.000000pt" height="512.000000pt" viewBox="0 0 512.000000 512.000000"
 preserveAspectRatio="xMidYMid meet">

<g transform="translate(0.000000,512.000000) scale(0.100000,-0.100000)"
fill="#000000" stroke="none">
<path d="M903 3891 c-130 -45 -217 -152 -262 -323 -28 -106 -33 -152 -18 -170
11 -14 1847 -960 1888 -973 12 -4 51 24 124 89 153 137 229 175 320 161 29 -4
169 -77 436 -226 499 -280 484 -272 509 -259 31 17 24 47 -17 74 -120 77 -846
472 -888 484 -125 33 -260 -25 -426 -185 l-55 -54 -905 465 c-617 317 -905
470 -908 482 -5 25 28 141 56 197 31 63 87 123 137 149 63 33 176 36 268 8
243 -73 1156 -510 1733 -830 414 -229 824 -479 1140 -695 154 -105 160 -108
185 -95 25 13 26 42 3 62 -10 9 -103 73 -208 143 -569 380 -1204 741 -1903
1082 -425 207 -819 381 -937 414 -88 24 -202 25 -272 0z"/>
<path d="M780 3525 c-6 -8 -9 -23 -6 -33 5 -14 251 -145 809 -432 441 -227
832 -429 868 -447 56 -29 70 -33 88 -24 31 17 26 48 -11 71 -76 46 -1706 880
-1720 880 -9 0 -21 -7 -28 -15z"/>
<path d="M132 2047 c-72 -73 -132 -139 -132 -147 1 -8 40 -91 88 -185 l87
-170 145 -22 c981 -151 2152 -195 3021 -113 386 37 700 89 1033 173 l169 42
88 132 c49 73 89 138 89 145 0 7 -61 74 -134 147 l-135 135 -203 -37 c-358
-66 -699 -104 -1128 -128 -249 -13 -1153 -7 -1405 10 -446 30 -898 76 -1252
126 -98 14 -182 25 -188 25 -6 0 -70 -60 -143 -133z m348 24 c452 -63 940
-107 1466 -132 322 -15 1183 -6 1434 15 392 33 738 79 975 130 l70 15 102
-101 101 -101 -68 -102 -68 -102 -169 -41 c-343 -83 -643 -132 -1038 -167
-580 -51 -1410 -45 -2090 15 -316 28 -957 108 -969 121 -2 2 -34 64 -71 138
l-67 134 104 104 c78 78 108 103 123 99 11 -3 85 -14 165 -25z"/>
<path d="M4250 1925 c-15 -19 -4 -52 21 -60 38 -12 65 35 37 63 -16 16 -43 15
-58 -3z"/>
<path d="M330 1845 c-15 -19 -4 -52 21 -60 38 -12 65 35 37 63 -16 16 -43 15
-58 -3z"/>
<path d="M4652 1688 c-18 -18 -15 -39 19 -106 32 -65 101 -135 176 -179 24
-14 42 -27 39 -30 -7 -8 -129 18 -200 43 -86 30 -113 31 -121 3 -10 -31 18
-53 105 -82 94 -32 184 -47 280 -46 100 0 150 10 164 32 18 28 -4 49 -80 78
-87 32 -126 53 -189 99 -62 46 -71 56 -110 133 -32 63 -58 80 -83 55z"/>
<path d="M4390 1509 c-387 -107 -911 -180 -1500 -210 -288 -15 -1068 -6 -1365
16 -407 29 -715 61 -1078 111 -271 38 -287 37 -287 -7 0 -29 24 -36 206 -63
985 -146 2117 -186 2975 -106 265 25 519 61 739 106 181 36 432 99 462 115 35
19 15 70 -26 68 -12 0 -68 -14 -126 -30z"/>
</g>
</svg>
