<?xml version="1.0" standalone="no"?>
<!DOCTYPE svg PUBLIC "-//W3C//DTD SVG 20010904//EN"
 "http://www.w3.org/TR/2001/REC-SVG-20010904/DTD/svg10.dtd">
<svg version="1.0" xmlns="http://www.w3.org/2000/svg"
 width="512.000000pt" height="512.000000pt" viewBox="0 0 512.000000 512.000000"
 preserveAspectRatio="xMidYMid meet">

<g transform="translate(0.000000,512.000000) scale(0.100000,-0.100000)"
fill="#000000" stroke="none">
<path d="M2868 5105 c-134 -34 -74 22 -1475 -1378 -1253 -1252 -1314 -1315
-1344 -1380 -45 -98 -57 -194 -36 -292 20 -95 64 -169 151 -255 36 -35 66 -68
66 -73 0 -5 -34 -46 -77 -91 -158 -167 -192 -344 -103 -534 29 -62 69 -105
508 -544 439 -439 482 -479 544 -508 190 -89 367 -55 534 103 45 43 85 77 89
77 4 0 44 -35 89 -77 95 -90 162 -127 264 -144 92 -15 178 -2 270 41 63 29
138 102 1379 1343 1252 1252 1314 1315 1344 1380 45 97 57 195 37 289 -21 95
-68 175 -157 262 l-70 69 81 86 c163 172 198 347 108 539 -29 62 -69 105 -508
544 -437 437 -482 480 -543 508 -193 89 -369 54 -540 -108 l-86 -81 -69 70
c-74 75 -152 127 -222 148 -68 19 -170 22 -234 6z m159 -295 c15 -6 87 -69
158 -140 130 -129 160 -150 216 -150 50 0 88 27 219 156 154 151 187 167 268
125 48 -25 908 -887 921 -924 16 -40 13 -83 -5 -120 -9 -18 -74 -90 -144 -162
-191 -194 -190 -206 10 -410 146 -149 158 -170 145 -243 -6 -33 -158 -188
-1298 -1330 -1035 -1035 -1299 -1295 -1329 -1304 -75 -22 -100 -8 -253 142
-205 201 -214 201 -415 5 -148 -144 -182 -164 -257 -151 -34 7 -89 58 -485
454 -246 245 -455 461 -463 478 -20 42 -19 87 1 127 9 18 74 91 144 162 191
195 190 206 -10 410 -146 149 -159 170 -145 243 6 33 157 188 1293 1325 708
709 1301 1295 1317 1303 36 16 74 17 112 4z"/>
<path d="M3529 4157 c-61 -41 -86 -125 -55 -185 8 -15 42 -54 75 -87 l61 -60
-212 -212 -212 -212 -68 64 c-77 73 -127 94 -183 75 -51 -17 -82 -46 -101 -95
-25 -66 -9 -109 71 -194 l64 -67 -102 -102 -103 -103 -44 16 c-62 22 -175 30
-239 16 -186 -40 -326 -192 -354 -386 -9 -64 -8 -84 11 -161 l22 -89 -112
-112 -112 -112 -62 60 c-107 102 -180 113 -254 39 -74 -74 -63 -147 39 -254
l60 -62 -212 -212 -212 -212 -60 61 c-33 33 -72 67 -87 75 -60 31 -144 6 -185
-55 -25 -37 -31 -107 -12 -144 16 -31 459 -475 491 -493 84 -44 197 10 214
103 11 58 -10 102 -81 173 l-65 65 212 212 212 212 68 -64 c83 -79 128 -95
194 -70 50 19 79 51 95 105 17 55 -3 101 -77 179 l-63 67 112 112 112 112 89
-22 c77 -19 97 -20 161 -11 193 28 341 163 385 352 15 64 8 177 -15 241 l-16
44 103 103 102 102 62 -60 c35 -33 79 -66 100 -75 109 -46 229 64 194 178 -7
24 -36 65 -75 106 l-64 68 212 212 212 212 60 -61 c33 -33 72 -67 87 -75 60
-31 144 -6 185 55 27 40 31 108 9 149 -18 32 -462 475 -493 491 -37 19 -107
13 -144 -12z m-871 -1464 c89 -65 79 -199 -19 -251 -70 -38 -140 -20 -192 49
-47 63 -19 172 53 211 44 24 120 19 158 -9z"/>
</g>
</svg>
